<svg xmlns="http://www.w3.org/2000/svg" width="512" height="512" viewBox="0 0 24 24"><path fill="#9B5278" d="M6 19.23q-.508 0-.87-.36q-.36-.362-.36-.87t.36-.87q.362-.36.87-.36t.87.36q.36.362.36.87t-.36.87q-.362.36-.87.36Zm0-6q-.508 0-.87-.36q-.36-.362-.36-.87t.36-.87q.362-.36.87-.36t.87.36q.36.362.36.87t-.36.87q-.362.36-.87.36Zm0-6q-.508 0-.87-.36q-.36-.362-.36-.87t.36-.87q.362-.36.87-.36t.87.36q.36.362.36.87t-.36.87q-.362.36-.87.36Zm6 0q-.508 0-.87-.36q-.36-.362-.36-.87t.36-.87q.362-.36.87-.36t.87.36q.36.362.36.87t-.36.87q-.362.36-.87.36Zm6 0q-.508 0-.87-.36q-.36-.362-.36-.87t.36-.87q.362-.36.87-.36t.87.36q.36.362.36.87t-.36.87q-.362.36-.87.36Zm-6 6q-.508 0-.87-.36q-.36-.362-.36-.87t.36-.87q.362-.36.87-.36t.87.36q.36.362.36.87t-.36.87q-.362.36-.87.36Zm1.23 6v-2.209l5.333-5.308q.149-.128.306-.19q.158-.061.315-.061q.172 0 .338.064q.165.064.301.193l.925.944q.123.149.188.308t.064.32q0 .159-.052.322t-.2.31l-5.308 5.308h-2.21Zm5.96-4.984l.925-.956l-.925-.944l-.95.95l.95.95Z"/></svg>